<?xml version="1.0" encoding="utf-8"?>
<!-- Generator: Adobe Illustrator 24.0.0, SVG Export Plug-In . SVG Version: 6.00 Build 0)  -->
<svg version="1.1" id="Layer_1" xmlns="http://www.w3.org/2000/svg" xmlns:xlink="http://www.w3.org/1999/xlink" x="0px" y="0px"
	 viewBox="0 0 100 100" style="enable-background:new 0 0 100 100;" xml:space="preserve">
<style type="text/css">
	.st0{fill:#F4AA89;}
	.st1{fill:#F6BC9F;}
	.st2{fill:#6D584F;}
	.st3{font-family:'Roboto-Bold';}
	.st4{font-size:16.2987px;}
</style>
<g>
	<path class="st0" d="M-247.1,21.4c-0.2,0-0.3,0-0.5,0c-2.7-0.3-4.6-2.6-4.4-5.3l1.7-17.7c0.3-2.7,2.6-4.6,5.3-4.4
		c2.7,0.3,4.6,2.6,4.4,5.3l-1.7,17.7C-242.6,19.5-244.7,21.4-247.1,21.4z"/>
	<g>
		<polygon class="st0" points="-247.1,16.5 -237.4,43.8 -237.6,65.9 -218.6,65.9 -218.5,44.8 -212.3,19.7 -216.5,-1.2 		"/>
		<path class="st0" d="M-218.6,70.8h-19c-1.3,0-2.5-0.5-3.4-1.4c-0.9-0.9-1.4-2.2-1.4-3.4l0.1-21.3l-9.4-26.4
			c-0.8-2.2,0.1-4.7,2.1-5.8l30.7-17.7c1.4-0.8,3-0.9,4.4-0.2c1.4,0.6,2.4,1.9,2.8,3.5l4.1,20.9c0.1,0.7,0.1,1.4,0,2.1l-6,24.6
			l-0.1,20.6C-213.7,68.6-215.9,70.8-218.6,70.8z M-232.7,61.1h9.3l0.1-16.3c0-0.4,0-0.8,0.1-1.1l5.9-24.1l-2.6-13.2l-21.3,12.3
			l8.3,23.4c0.2,0.5,0.3,1.1,0.3,1.7L-232.7,61.1z"/>
	</g>
	<path class="st1" d="M-208.7,30.3c-0.6,0-1.3-0.1-1.9-0.4c-2.5-1.1-3.6-3.9-2.5-6.4l4-9.1l-8.7-26.4c-0.8-2.5,0.5-5.3,3.1-6.1
		c2.5-0.8,5.3,0.5,6.1,3.1l9.3,28.2c0.4,1.1,0.3,2.4-0.2,3.4l-4.7,10.8C-205.1,29.2-206.9,30.3-208.7,30.3z"/>
	<g>
		<path class="st1" d="M-208.7,25.4l-9.7,19.3l-0.1,21.2h-19.6V43.8C-238.2,43.8-229.7,20.6-208.7,25.4z"/>
		<path class="st1" d="M-218.6,70.8h-19.6c-2.7,0-4.8-2.2-4.8-4.8V43.8c0-0.6,0.1-1.1,0.3-1.7c0.3-0.9,8.3-22.2,28.4-22.2
			c2.2,0,4.4,0.3,6.7,0.8c1.5,0.3,2.7,1.3,3.3,2.7c0.6,1.3,0.6,2.9-0.1,4.2l-9.2,18.3l-0.1,20C-213.7,68.6-215.9,70.8-218.6,70.8z
			 M-233.3,61.1h9.9l0.1-16.3c0-0.8,0.2-1.5,0.5-2.2l6.5-12.9c-10.4,1.2-15.7,12.1-17,15V61.1z"/>
	</g>
	<path class="st1" d="M-227.2,19.5c-0.1,0-0.1,0-0.2,0c-2.7-0.1-4.8-2.3-4.7-5l0.8-20.4c0.1-2.7,2.3-4.8,5-4.7
		c2.7,0.1,4.8,2.3,4.7,5l-0.8,20.4C-222.5,17.4-224.6,19.5-227.2,19.5z"/>
	<path class="st1" d="M-218.4,18.5c-0.1,0-0.3,0-0.4,0c-2.7-0.2-4.7-2.6-4.4-5.2l1.4-16.7c0.2-2.7,2.6-4.7,5.2-4.4
		c2.7,0.2,4.7,2.6,4.4,5.2l-1.4,16.7C-213.8,16.6-215.9,18.5-218.4,18.5z"/>
	<path class="st1" d="M-235.2,19.5c-2.6,0-4.7-2-4.8-4.6l-0.9-19c-0.1-2.7,1.9-4.9,4.6-5.1c2.7-0.1,5,1.9,5.1,4.6l0.9,19
		c0.1,2.7-1.9,4.9-4.6,5.1C-235,19.4-235.1,19.5-235.2,19.5z"/>
	<path class="st1" d="M-240.1,18.5c-2,0-3.9-1.2-4.6-3.2L-250,0.4c-0.9-2.5,0.4-5.3,2.9-6.2c2.5-0.9,5.3,0.4,6.2,2.9l5.3,14.9
		c0.9,2.5-0.4,5.3-2.9,6.2C-239,18.4-239.6,18.5-240.1,18.5z"/>
</g>
<text transform="matrix(1 0 0 1 -236.5135 115.289)" class="st2 st3" style="font-size:19.6092px;">Aa</text>
<g>
	<path class="st0" d="M-247.1,21.4c-0.2,0-0.3,0-0.5,0c-2.7-0.3-4.6-2.6-4.4-5.3l1.7-17.7c0.3-2.7,2.6-4.6,5.3-4.4
		c2.7,0.3,4.6,2.6,4.4,5.3l-1.7,17.7C-242.6,19.5-244.7,21.4-247.1,21.4z"/>
	<g>
		<polygon class="st0" points="-247.1,16.5 -237.4,43.8 -237.6,65.9 -218.6,65.9 -218.5,44.8 -212.3,19.7 -216.5,-1.2 		"/>
		<path class="st0" d="M-218.6,70.8h-19c-1.3,0-2.5-0.5-3.4-1.4c-0.9-0.9-1.4-2.2-1.4-3.4l0.1-21.3l-9.4-26.4
			c-0.8-2.2,0.1-4.7,2.1-5.8l30.7-17.7c1.4-0.8,3-0.9,4.4-0.2c1.4,0.6,2.4,1.9,2.8,3.5l4.1,20.9c0.1,0.7,0.1,1.4,0,2.1l-6,24.6
			l-0.1,20.6C-213.7,68.6-215.9,70.8-218.6,70.8z M-232.7,61.1h9.3l0.1-16.3c0-0.4,0-0.8,0.1-1.1l5.9-24.1l-2.6-13.2l-21.3,12.3
			l8.3,23.4c0.2,0.5,0.3,1.1,0.3,1.7L-232.7,61.1z"/>
	</g>
	<path class="st1" d="M-208.7,30.3c-0.6,0-1.3-0.1-1.9-0.4c-2.5-1.1-3.6-3.9-2.5-6.4l4-9.1l-8.7-26.4c-0.8-2.5,0.5-5.3,3.1-6.1
		c2.5-0.8,5.3,0.5,6.1,3.1l9.3,28.2c0.4,1.1,0.3,2.4-0.2,3.4l-4.7,10.8C-205.1,29.2-206.9,30.3-208.7,30.3z"/>
	<g>
		<path class="st1" d="M-208.7,25.4l-9.7,19.3l-0.1,21.2h-19.6V43.8C-238.2,43.8-229.7,20.6-208.7,25.4z"/>
		<path class="st1" d="M-218.6,70.8h-19.6c-2.7,0-4.8-2.2-4.8-4.8V43.8c0-0.6,0.1-1.1,0.3-1.7c0.3-0.9,8.3-22.2,28.4-22.2
			c2.2,0,4.4,0.3,6.7,0.8c1.5,0.3,2.7,1.3,3.3,2.7c0.6,1.3,0.6,2.9-0.1,4.2l-9.2,18.3l-0.1,20C-213.7,68.6-215.9,70.8-218.6,70.8z
			 M-233.3,61.1h9.9l0.1-16.3c0-0.8,0.2-1.5,0.5-2.2l6.5-12.9c-10.4,1.2-15.7,12.1-17,15V61.1z"/>
	</g>
	<path class="st1" d="M-227.2,19.5c-0.1,0-0.1,0-0.2,0c-2.7-0.1-4.8-2.3-4.7-5l0.8-20.4c0.1-2.7,2.3-4.8,5-4.7
		c2.7,0.1,4.8,2.3,4.7,5l-0.8,20.4C-222.5,17.4-224.6,19.5-227.2,19.5z"/>
	<path class="st1" d="M-218.4,18.5c-0.1,0-0.3,0-0.4,0c-2.7-0.2-4.7-2.6-4.4-5.2l1.4-16.7c0.2-2.7,2.6-4.7,5.2-4.4
		c2.7,0.2,4.7,2.6,4.4,5.2l-1.4,16.7C-213.8,16.6-215.9,18.5-218.4,18.5z"/>
	<path class="st1" d="M-235.2,19.5c-2.6,0-4.7-2-4.8-4.6l-0.9-19c-0.1-2.7,1.9-4.9,4.6-5.1c2.7-0.1,5,1.9,5.1,4.6l0.9,19
		c0.1,2.7-1.9,4.9-4.6,5.1C-235,19.4-235.1,19.5-235.2,19.5z"/>
	<path class="st1" d="M-240.1,18.5c-2,0-3.9-1.2-4.6-3.2L-250,0.4c-0.9-2.5,0.4-5.3,2.9-6.2c2.5-0.9,5.3,0.4,6.2,2.9l5.3,14.9
		c0.9,2.5-0.4,5.3-2.9,6.2C-239,18.4-239.6,18.5-240.1,18.5z"/>
</g>
<text transform="matrix(1 0 0 1 -236.5135 115.289)" class="st2 st3" style="font-size:19.6092px;">Aa</text>
<g>
	<path class="st0" d="M-247.3,21.3c-0.2,0-0.3,0-0.5,0c-2.7-0.3-4.6-2.6-4.4-5.3l1.7-17.7c0.3-2.7,2.6-4.6,5.3-4.4
		c2.7,0.3,4.6,2.6,4.4,5.3l-1.7,17.7C-242.7,19.4-244.8,21.3-247.3,21.3z"/>
	<g>
		<polygon class="st0" points="-247.3,16.5 -237.6,43.7 -237.8,65.9 -218.7,65.9 -218.6,44.7 -212.5,19.6 -216.6,-1.3 		"/>
		<path class="st0" d="M-218.7,70.7h-19c-1.3,0-2.5-0.5-3.4-1.4c-0.9-0.9-1.4-2.2-1.4-3.4l0.1-21.3l-9.4-26.4
			c-0.8-2.2,0.1-4.7,2.1-5.8L-219-5.5c1.4-0.8,3-0.9,4.4-0.2c1.4,0.6,2.4,1.9,2.8,3.5l4.1,20.9c0.1,0.7,0.1,1.4,0,2.1l-6,24.6
			l-0.1,20.6C-213.9,68.6-216.1,70.7-218.7,70.7z M-232.9,61h9.3l0.1-16.3c0-0.4,0-0.8,0.1-1.1l5.9-24.1l-2.6-13.2l-21.3,12.3
			l8.3,23.4c0.2,0.5,0.3,1.1,0.3,1.7L-232.9,61z"/>
	</g>
	<path class="st1" d="M-208.9,30.2c-0.6,0-1.3-0.1-1.9-0.4c-2.5-1.1-3.6-3.9-2.5-6.4l4-9.1l-8.7-26.4c-0.8-2.5,0.5-5.3,3.1-6.1
		c2.5-0.8,5.3,0.5,6.1,3.1l9.3,28.2c0.4,1.1,0.3,2.4-0.2,3.4l-4.7,10.8C-205.2,29.1-207,30.2-208.9,30.2z"/>
	<g>
		<path class="st1" d="M-208.9,25.4l-9.7,19.3l-0.1,21.2h-19.6V43.7C-238.3,43.7-229.9,20.6-208.9,25.4z"/>
		<path class="st1" d="M-218.7,70.7h-19.6c-2.7,0-4.8-2.2-4.8-4.8V43.7c0-0.6,0.1-1.1,0.3-1.7c0.3-0.9,8.3-22.2,28.4-22.2
			c2.2,0,4.4,0.3,6.7,0.8c1.5,0.3,2.7,1.3,3.3,2.7c0.6,1.3,0.6,2.9-0.1,4.2l-9.2,18.3l-0.1,20C-213.9,68.6-216.1,70.7-218.7,70.7z
			 M-233.5,61h9.9l0.1-16.3c0-0.8,0.2-1.5,0.5-2.2l6.5-12.9c-10.4,1.2-15.7,12.1-17,15V61z"/>
	</g>
	<path class="st1" d="M-227.4,19.4c-0.1,0-0.1,0-0.2,0c-2.7-0.1-4.8-2.3-4.7-5l0.8-20.4c0.1-2.7,2.3-4.8,5-4.7
		c2.7,0.1,4.8,2.3,4.7,5l-0.8,20.4C-222.6,17.3-224.8,19.4-227.4,19.4z"/>
	<path class="st1" d="M-218.6,18.5c-0.1,0-0.3,0-0.4,0c-2.7-0.2-4.7-2.6-4.4-5.2l1.4-16.7c0.2-2.7,2.6-4.7,5.2-4.4
		c2.7,0.2,4.7,2.6,4.4,5.2l-1.4,16.7C-214,16.6-216.1,18.5-218.6,18.5z"/>
	<path class="st1" d="M-235.4,19.4c-2.6,0-4.7-2-4.8-4.6l-0.9-19c-0.1-2.7,1.9-4.9,4.6-5.1c2.7-0.1,5,1.9,5.1,4.6l0.9,19
		c0.1,2.7-1.9,4.9-4.6,5.1C-235.2,19.4-235.3,19.4-235.4,19.4z"/>
	<path class="st1" d="M-240.3,18.5c-2,0-3.9-1.2-4.6-3.2l-5.3-14.9c-0.9-2.5,0.4-5.3,2.9-6.2c2.5-0.9,5.3,0.4,6.2,2.9l5.3,14.9
		c0.9,2.5-0.4,5.3-2.9,6.2C-239.2,18.4-239.7,18.5-240.3,18.5z"/>
</g>
<text transform="matrix(1 0 0 1 -236.6742 115.2354)" class="st2 st3" style="font-size:19.6092px;">Aa</text>
<g>
	<path class="st0" d="M-247.3,21.3c-0.2,0-0.3,0-0.5,0c-2.7-0.3-4.6-2.6-4.4-5.3l1.7-17.7c0.3-2.7,2.6-4.6,5.3-4.4
		c2.7,0.3,4.6,2.6,4.4,5.3l-1.7,17.7C-242.7,19.4-244.8,21.3-247.3,21.3z"/>
	<g>
		<polygon class="st0" points="-247.3,16.5 -237.6,43.7 -237.8,65.9 -218.7,65.9 -218.6,44.7 -212.5,19.6 -216.6,-1.3 		"/>
		<path class="st0" d="M-218.7,70.7h-19c-1.3,0-2.5-0.5-3.4-1.4c-0.9-0.9-1.4-2.2-1.4-3.4l0.1-21.3l-9.4-26.4
			c-0.8-2.2,0.1-4.7,2.1-5.8L-219-5.5c1.4-0.8,3-0.9,4.4-0.2c1.4,0.6,2.4,1.9,2.8,3.5l4.1,20.9c0.1,0.7,0.1,1.4,0,2.1l-6,24.6
			l-0.1,20.6C-213.9,68.6-216.1,70.7-218.7,70.7z M-232.9,61h9.3l0.1-16.3c0-0.4,0-0.8,0.1-1.1l5.9-24.1l-2.6-13.2l-21.3,12.3
			l8.3,23.4c0.2,0.5,0.3,1.1,0.3,1.7L-232.9,61z"/>
	</g>
	<path class="st1" d="M-208.9,30.2c-0.6,0-1.3-0.1-1.9-0.4c-2.5-1.1-3.6-3.9-2.5-6.4l4-9.1l-8.7-26.4c-0.8-2.5,0.5-5.3,3.1-6.1
		c2.5-0.8,5.3,0.5,6.1,3.1l9.3,28.2c0.4,1.1,0.3,2.4-0.2,3.4l-4.7,10.8C-205.2,29.1-207,30.2-208.9,30.2z"/>
	<g>
		<path class="st1" d="M-208.9,25.4l-9.7,19.3l-0.1,21.2h-19.6V43.7C-238.3,43.7-229.9,20.6-208.9,25.4z"/>
		<path class="st1" d="M-218.7,70.7h-19.6c-2.7,0-4.8-2.2-4.8-4.8V43.7c0-0.6,0.1-1.1,0.3-1.7c0.3-0.9,8.3-22.2,28.4-22.2
			c2.2,0,4.4,0.3,6.7,0.8c1.5,0.3,2.7,1.3,3.3,2.7c0.6,1.3,0.6,2.9-0.1,4.2l-9.2,18.3l-0.1,20C-213.9,68.6-216.1,70.7-218.7,70.7z
			 M-233.5,61h9.9l0.1-16.3c0-0.8,0.2-1.5,0.5-2.2l6.5-12.9c-10.4,1.2-15.7,12.1-17,15V61z"/>
	</g>
	<path class="st1" d="M-227.4,19.4c-0.1,0-0.1,0-0.2,0c-2.7-0.1-4.8-2.3-4.7-5l0.8-20.4c0.1-2.7,2.3-4.8,5-4.7
		c2.7,0.1,4.8,2.3,4.7,5l-0.8,20.4C-222.6,17.3-224.8,19.4-227.4,19.4z"/>
	<path class="st1" d="M-218.6,18.5c-0.1,0-0.3,0-0.4,0c-2.7-0.2-4.7-2.6-4.4-5.2l1.4-16.7c0.2-2.7,2.6-4.7,5.2-4.4
		c2.7,0.2,4.7,2.6,4.4,5.2l-1.4,16.7C-214,16.6-216.1,18.5-218.6,18.5z"/>
	<path class="st1" d="M-235.4,19.4c-2.6,0-4.7-2-4.8-4.6l-0.9-19c-0.1-2.7,1.9-4.9,4.6-5.1c2.7-0.1,5,1.9,5.1,4.6l0.9,19
		c0.1,2.7-1.9,4.9-4.6,5.1C-235.2,19.4-235.3,19.4-235.4,19.4z"/>
	<path class="st1" d="M-240.3,18.5c-2,0-3.9-1.2-4.6-3.2l-5.3-14.9c-0.9-2.5,0.4-5.3,2.9-6.2c2.5-0.9,5.3,0.4,6.2,2.9l5.3,14.9
		c0.9,2.5-0.4,5.3-2.9,6.2C-239.2,18.4-239.7,18.5-240.3,18.5z"/>
</g>
<text transform="matrix(1 0 0 1 -236.6742 115.2354)" class="st2 st3" style="font-size:19.6092px;">Aa</text>
<g>
	<path class="st0" d="M-127.2,38.4c0,0-0.1,0-0.1,0c-2.7-0.1-4.8-2.3-4.7-5l1-38c0.1-2.6,2.2-4.7,4.8-4.7c0,0,0.1,0,0.1,0
		c2.7,0.1,4.8,2.3,4.7,5l-1,38C-122.4,36.4-124.6,38.4-127.2,38.4z"/>
	<path class="st0" d="M-145.5,33.8c0,0-0.1,0-0.1,0c-2.7-0.1-4.8-2.3-4.7-5l0.9-33.3c0.1-2.7,2.3-4.8,5-4.7c2.7,0.1,4.8,2.3,4.7,5
		l-0.9,33.3C-140.8,31.7-142.9,33.8-145.5,33.8z"/>
	<path class="st0" d="M-136.2,36.8C-136.2,36.8-136.2,36.8-136.2,36.8c-2.7,0-4.9-2.2-4.8-4.9l0.5-41.7c0-2.7,2.2-4.8,4.9-4.8
		c2.7,0,4.8,2.2,4.8,4.9l-0.5,41.7C-131.3,34.7-133.5,36.8-136.2,36.8z"/>
	<path class="st0" d="M-156.4,36.8c-0.2,0-0.3,0-0.5,0c-2.7-0.3-4.6-2.6-4.3-5.3l2.2-22.3c0.3-2.7,2.6-4.6,5.3-4.3
		c2.7,0.3,4.6,2.6,4.3,5.3l-2.2,22.3C-151.8,35-153.9,36.8-156.4,36.8z"/>
	<g>
		<polygon class="st0" points="-156.4,32 -146.7,59.2 -146.9,81.4 -127.8,81.4 -127.7,60.3 -121.6,35.1 -126.2,-4.4 		"/>
		<path class="st0" d="M-127.8,86.3h-19c-1.3,0-2.5-0.5-3.4-1.4c-0.9-0.9-1.4-2.2-1.4-3.4l0.1-21.3l-9.4-26.4
			c-0.6-1.6-0.3-3.4,0.8-4.7l30.2-36.4c1.2-1.5,3.3-2.1,5.1-1.6c1.9,0.6,3.2,2.2,3.4,4.1l4.6,39.6c0.1,0.6,0,1.2-0.1,1.7l-6,24.6
			l-0.1,20.6C-123,84.1-125.1,86.3-127.8,86.3z M-142,76.6h9.3l0.1-16.3c0-0.4,0-0.8,0.1-1.1l5.9-24.3l-3.2-27.4L-150.9,33l8.8,24.6
			c0.2,0.5,0.3,1.1,0.3,1.7L-142,76.6z"/>
	</g>
	<path class="st1" d="M-118,45.8c-2.3,0-4.3-1.6-4.8-4l-2-10.7H-142c-2.7,0-4.8-2.2-4.8-4.8c0-2.7,2.2-4.8,4.8-4.8h21.3
		c2.3,0,4.3,1.7,4.8,4l2.7,14.7c0.5,2.6-1.2,5.2-3.9,5.7C-117.4,45.7-117.7,45.8-118,45.8z"/>
	<g>
		<path class="st1" d="M-118.6,41.9l-9.2,18.4l0,21.2h-19.6V59.2C-147.4,59.2-138.4,33.6-118.6,41.9z"/>
		<path class="st1" d="M-127.8,86.3h-19.6c-2.7,0-4.8-2.2-4.8-4.8V59.2c0-0.5,0.1-1.1,0.3-1.6c0.3-0.9,8-22.2,25.7-22.2
			c3.1,0,6.3,0.7,9.6,2c1.2,0.5,2.2,1.5,2.7,2.8c0.5,1.3,0.4,2.7-0.2,3.9l-8.7,17.3l0,20C-122.9,84.1-125.1,86.3-127.8,86.3z
			 M-142.6,76.6h10l0-16.3c0-0.7,0.2-1.5,0.5-2.2l6.5-13c-0.2,0-0.5,0-0.7,0c-9.5,0-15.1,12-16.3,15.1V76.6z"/>
	</g>
</g>
<text transform="matrix(1 0 0 1 -148.1659 110.7717)" class="st2 st3" style="font-size:19.6092px;">Bb</text>
<g>
	<path class="st0" d="M-127.2,38.4c0,0-0.1,0-0.1,0c-2.7-0.1-4.8-2.3-4.7-5l1-38c0.1-2.6,2.2-4.7,4.8-4.7c0,0,0.1,0,0.1,0
		c2.7,0.1,4.8,2.3,4.7,5l-1,38C-122.4,36.4-124.6,38.4-127.2,38.4z"/>
	<path class="st0" d="M-145.5,33.8c0,0-0.1,0-0.1,0c-2.7-0.1-4.8-2.3-4.7-5l0.9-33.3c0.1-2.7,2.3-4.8,5-4.7c2.7,0.1,4.8,2.3,4.7,5
		l-0.9,33.3C-140.8,31.7-142.9,33.8-145.5,33.8z"/>
	<path class="st0" d="M-136.2,36.8C-136.2,36.8-136.2,36.8-136.2,36.8c-2.7,0-4.9-2.2-4.8-4.9l0.5-41.7c0-2.7,2.2-4.8,4.9-4.8
		c2.7,0,4.8,2.2,4.8,4.9l-0.5,41.7C-131.3,34.7-133.5,36.8-136.2,36.8z"/>
	<path class="st0" d="M-156.4,36.8c-0.2,0-0.3,0-0.5,0c-2.7-0.3-4.6-2.6-4.3-5.3l2.2-22.3c0.3-2.7,2.6-4.6,5.3-4.3
		c2.7,0.3,4.6,2.6,4.3,5.3l-2.2,22.3C-151.8,35-153.9,36.8-156.4,36.8z"/>
	<g>
		<polygon class="st0" points="-156.4,32 -146.7,59.2 -146.9,81.4 -127.8,81.4 -127.7,60.3 -121.6,35.1 -126.2,-4.4 		"/>
		<path class="st0" d="M-127.8,86.3h-19c-1.3,0-2.5-0.5-3.4-1.4c-0.9-0.9-1.4-2.2-1.4-3.4l0.1-21.3l-9.4-26.4
			c-0.6-1.6-0.3-3.4,0.8-4.7l30.2-36.4c1.2-1.5,3.3-2.1,5.1-1.6c1.9,0.6,3.2,2.2,3.4,4.1l4.6,39.6c0.1,0.6,0,1.2-0.1,1.7l-6,24.6
			l-0.1,20.6C-123,84.1-125.1,86.3-127.8,86.3z M-142,76.6h9.3l0.1-16.3c0-0.4,0-0.8,0.1-1.1l5.9-24.3l-3.2-27.4L-150.9,33l8.8,24.6
			c0.2,0.5,0.3,1.1,0.3,1.7L-142,76.6z"/>
	</g>
	<path class="st1" d="M-118,45.8c-2.3,0-4.3-1.6-4.8-4l-2-10.7H-142c-2.7,0-4.8-2.2-4.8-4.8c0-2.7,2.2-4.8,4.8-4.8h21.3
		c2.3,0,4.3,1.7,4.8,4l2.7,14.7c0.5,2.6-1.2,5.2-3.9,5.7C-117.4,45.7-117.7,45.8-118,45.8z"/>
	<g>
		<path class="st1" d="M-118.6,41.9l-9.2,18.4l0,21.2h-19.6V59.2C-147.4,59.2-138.4,33.6-118.6,41.9z"/>
		<path class="st1" d="M-127.8,86.3h-19.6c-2.7,0-4.8-2.2-4.8-4.8V59.2c0-0.5,0.1-1.1,0.3-1.6c0.3-0.9,8-22.2,25.7-22.2
			c3.1,0,6.3,0.7,9.6,2c1.2,0.5,2.2,1.5,2.7,2.8c0.5,1.3,0.4,2.7-0.2,3.9l-8.7,17.3l0,20C-122.9,84.1-125.1,86.3-127.8,86.3z
			 M-142.6,76.6h10l0-16.3c0-0.7,0.2-1.5,0.5-2.2l6.5-13c-0.2,0-0.5,0-0.7,0c-9.5,0-15.1,12-16.3,15.1V76.6z"/>
	</g>
</g>
<text transform="matrix(1 0 0 1 -148.1659 110.7717)" class="st2 st3" style="font-size:19.6092px;">Bb</text>
<g>
	<g>
		<path class="st0" d="M32.1,33.8c-0.1,0-0.3,0-0.4,0c-2.2-0.2-3.8-2.2-3.6-4.4l1.4-14.7c0.2-2.2,2.2-3.8,4.4-3.6
			c2.2,0.2,3.8,2.2,3.6,4.4l-1.4,14.7C35.9,32.2,34.1,33.8,32.1,33.8z"/>
		<g>
			<polygon class="st0" points="32.1,29.7 40.2,52.4 40,70.8 55.8,70.8 55.9,53.2 61,32.4 57.6,15 			"/>
			<path class="st0" d="M55.8,74.8H40c-1.1,0-2.1-0.4-2.9-1.2c-0.8-0.8-1.2-1.8-1.2-2.9l0.1-17.7l-7.8-22c-0.7-1.8,0.1-3.9,1.8-4.8
				l25.5-14.7c1.1-0.7,2.5-0.7,3.7-0.2c1.2,0.5,2,1.6,2.3,2.9L65,31.6c0.1,0.6,0.1,1.2,0,1.7l-5,20.4l-0.1,17.1
				C59.9,73.1,58.1,74.8,55.8,74.8z M44.1,66.8h7.8l0.1-13.6c0-0.3,0-0.6,0.1-0.9l4.9-20l-2.2-11L37,31.6L43.9,51
				c0.2,0.4,0.2,0.9,0.2,1.4L44.1,66.8z"/>
		</g>
		<path class="st1" d="M64,41.2c-0.5,0-1.1-0.1-1.6-0.3c-2-0.9-3-3.3-2.1-5.3l3.3-7.6L56.4,6c-0.7-2.1,0.5-4.4,2.6-5.1
			C61,0.2,63.3,1.4,64,3.5l7.7,23.4c0.3,0.9,0.3,2-0.1,2.9l-3.9,9C67.1,40.3,65.6,41.2,64,41.2z"/>
		<g>
			<path class="st1" d="M64,37.2l-8.1,16.1l-0.1,17.6H39.6V52.4C39.6,52.4,46.6,33.2,64,37.2z"/>
			<path class="st1" d="M55.8,74.8H39.6c-2.2,0-4-1.8-4-4V52.4c0-0.5,0.1-0.9,0.2-1.4c0.3-0.8,6.9-18.4,23.6-18.4
				c1.8,0,3.7,0.2,5.6,0.7c1.2,0.3,2.2,1.1,2.7,2.2c0.5,1.1,0.5,2.4,0,3.5l-7.7,15.2l-0.1,16.6C59.9,73.1,58.1,74.8,55.8,74.8z
				 M43.6,66.8h8.3l0.1-13.6c0-0.6,0.2-1.2,0.4-1.8l5.4-10.7c-8.6,1-13.1,10-14.1,12.4V66.8z"/>
		</g>
		<path class="st1" d="M48.7,32.2c-0.1,0-0.1,0-0.2,0c-2.2-0.1-4-2-3.9-4.2l0.6-17c0.1-2.2,2-4,4.2-3.9c2.2,0.1,4,2,3.9,4.2l-0.6,17
			C52.6,30.5,50.8,32.2,48.7,32.2z"/>
		<path class="st1" d="M56,31.4c-0.1,0-0.2,0-0.3,0c-2.2-0.2-3.9-2.1-3.7-4.3l1.1-13.9c0.2-2.2,2.1-3.9,4.3-3.7
			c2.2,0.2,3.9,2.1,3.7,4.3L60,27.7C59.8,29.8,58,31.4,56,31.4z"/>
		<path class="st1" d="M42,32.2c-2.1,0-3.9-1.7-4-3.8l-0.8-15.8c-0.1-2.2,1.6-4.1,3.8-4.2c2.2-0.1,4.1,1.6,4.2,3.8L46,28
			c0.1,2.2-1.6,4.1-3.8,4.2C42.2,32.2,42.1,32.2,42,32.2z"/>
		<path class="st1" d="M37.9,31.4c-1.7,0-3.2-1-3.8-2.7l-4.4-12.4c-0.7-2.1,0.3-4.4,2.4-5.2c2.1-0.8,4.4,0.3,5.2,2.4L41.7,26
			c0.7,2.1-0.3,4.4-2.4,5.2C38.9,31.4,38.4,31.4,37.9,31.4z"/>
	</g>
	<text transform="matrix(1 0 0 1 41.0519 95.2185)" class="st2 st3 st4">Aa</text>
</g>
</svg>
